<?xml version="1.0" encoding="utf-8"?>
<svg id="Logo" style="enable-background:new -719.8 374.8 240.9 65.7;" x="0px" y="0px" viewBox="-719.8 374.8 39 39" xmlns="http://www.w3.org/2000/svg">
  <style type="text/css">
	.st0{fill:#00967F;}
	.st1{fill:#FFFFFF;}
	.st2{clip-path:url(#SVGID_2_);}
</style>
  <g>
    <path class="st0" d="M-719.8,414.1c9.3-4.8,22.9-12.5,39.1-23.8v-3.8c-14.2,9.3-28.7,16.8-39.1,21.7&#10;&#9;&#9;&#9;C-719.8,408.2-719.8,414.1-719.8,414.1z"/>
    <path class="st0" d="M-719.8,402.8c10.3-4.2,24.8-10.7,39.1-19.2v-1.9c-13.4,6.6-27.3,10.8-39.1,13.4&#10;&#9;&#9;&#9;C-719.8,395.1-719.8,402.8-719.8,402.8z"/>
    <path class="st0" d="M-680.8,414.1V395c-8.9,7.5-17.7,14-25.1,19.1L-680.8,414.1L-680.8,414.1z"/>
    <path class="st0" d="M-710.9,414.1c7-4.2,15.6-9.6,24-16c2-1.5,4-3,6-4.6v-2.4c-12.6,9.4-25.4,17.3-35.4,22.9H-710.9z"/>
    <path class="st0" d="M-719.8,392.3c11.4-2,25.4-5.6,39.1-12.1v-2.1c-13.8,6.2-27.5,8.8-39.1,9.7&#10;&#9;&#9;&#9;C-719.8,387.8-719.8,392.3-719.8,392.3z"/>
    <path class="st0" d="M-719.8,374.8v10.9c0.9-0.1,1.7-0.1,2.6-0.2c9.5-0.7,22.5-2.4,36.5-8.5v-2.3&#10;&#9;&#9;&#9;C-680.8,374.8-719.8,374.8-719.8,374.8z"/>
    <g>
      <g>
        <path class="st1" d="M-719.8,385.8v2c11.5-0.9,25.3-3.6,39.1-9.7v-0.9c-14,6.1-27,7.7-36.5,8.5&#10;&#9;&#9;&#9;&#9;&#9;C-718.1,385.7-719,385.7-719.8,385.8z"/>
      </g>
    </g>
    <g>
      <g>
        <path class="st1" d="M-719.8,395.1c11.7-2.6,25.7-6.8,39.1-13.4v-1.5c-13.7,6.5-27.6,10.1-39.1,12.1&#10;&#9;&#9;&#9;&#9;&#9;C-719.8,392.3-719.8,395.1-719.8,395.1z"/>
      </g>
    </g>
    <g>
      <g>
        <path class="st1" d="M-719.8,408.2c10.4-4.9,24.8-12.4,39.1-21.7v-2.9c-14.3,8.5-28.7,15-39.1,19.2V408.2z"/>
      </g>
    </g>
    <g>
      <g>
        <path class="st1" d="M-710.9,414.1h5c7.4-5.1,16.2-11.6,25.1-19.1v-1.5c-2,1.6-4.1,3.1-6.1,4.6&#10;&#9;&#9;&#9;&#9;&#9;C-695.3,404.5-703.8,409.9-710.9,414.1z"/>
      </g>
    </g>
    <g>
      <g>
        <path class="st1" d="M-719.8,414.1h3.6c10-5.7,22.9-13.5,35.4-22.9v-0.9C-696.9,401.6-710.5,409.3-719.8,414.1L-719.8,414.1z"/>
      </g>
    </g>
  </g>
</svg>